<?xml version="1.0" encoding="iso-8859-1"?>
<!-- Uploaded to: SVG Repo, www.svgrepo.com, Generator: SVG Repo Mixer Tools -->
<svg fill="currentColor" height="800px" width="800px" version="1.1" id="Layer_1" xmlns="http://www.w3.org/2000/svg" xmlns:xlink="http://www.w3.org/1999/xlink" 
	 viewBox="0 0 512 512" xml:space="preserve">
<g>
	<g>
		<path d="M234.183,7.604V0h-57.776h-61.85H58.782v7.604c0,29.839-4.743,44.363-9.763,59.738
			C43.85,83.172,38.504,99.541,38.504,131.8c0,32.258,5.345,48.628,10.514,64.457c5.021,15.375,9.763,29.898,9.763,59.737
			c0,29.841-4.743,44.364-9.763,59.74c-4.545,13.92-9.246,28.316-10.297,53.597l15.194,0.632c0.964-23.185,5.139-35.971,9.56-49.508
			c5.17-15.83,10.515-32.2,10.515-64.46c0-32.258-5.345-48.628-10.514-64.457c-5.021-15.375-9.763-29.898-9.763-59.737
			c0-29.839,4.743-44.363,9.763-59.738c4.745-14.536,9.64-29.526,10.409-56.854h40.562c-0.736,24.819-5.078,38.125-9.653,52.134
			C99.625,83.171,94.28,99.541,94.28,131.8c0,32.258,5.345,48.628,10.514,64.457c5.021,15.375,9.763,29.898,9.763,59.737
			c0,29.841-4.743,44.365-9.763,59.741c-5.169,15.83-10.514,32.201-10.514,64.46c0,32.259,5.345,48.63,10.514,64.46
			c4.575,14.008,8.916,27.314,9.653,52.137H73.885c-0.77-27.33-5.664-42.322-10.41-56.857c-4.469-13.686-8.69-26.614-9.591-50.296
			l-15.196,0.578c0.98,25.805,5.733,40.362,10.329,54.438c5.021,15.376,9.763,29.9,9.763,59.741V512h55.777h61.85h57.776v-7.604
			c0-32.26-5.345-48.631-10.514-64.461c-5.021-15.376-9.763-29.9-9.763-59.74c0-29.84,4.743-44.364,9.763-59.74
			c5.169-15.83,10.514-32.201,10.514-64.461c0-32.258-5.345-48.628-10.514-64.457c-5.021-15.375-9.763-29.898-9.763-59.737
			s4.743-44.362,9.763-59.738C228.838,56.232,234.183,39.863,234.183,7.604z M129.662,496.792
			c-0.77-27.33-5.663-42.321-10.41-56.857c-5.021-15.376-9.763-29.9-9.763-59.74c0-29.84,4.743-44.364,9.763-59.74
			c5.17-15.83,10.514-32.201,10.514-64.461c0-32.258-5.344-48.628-10.514-64.457c-5.021-15.375-9.763-29.898-9.763-59.737
			s4.743-44.362,9.763-59.738c4.747-14.536,9.641-29.526,10.41-56.854h31.429c-0.737,24.823-5.079,38.125-9.655,52.134
			c-5.17,15.829-10.514,32.199-10.514,64.458c0,32.258,5.344,48.628,10.514,64.457c5.021,15.375,9.763,29.898,9.763,59.737
			c0,29.841-4.743,44.365-9.763,59.741c-5.17,15.83-10.514,32.201-10.514,64.46c0,32.259,5.344,48.63,10.514,64.46
			c4.576,14.01,8.918,27.311,9.655,52.137H129.662z M209.211,67.342c-5.169,15.83-10.514,32.199-10.514,64.458
			c0,32.258,5.345,48.628,10.514,64.457c5.021,15.375,9.763,29.898,9.763,59.737c0,29.841-4.743,44.365-9.763,59.741
			c-5.17,15.83-10.514,32.201-10.514,64.46c0,32.259,5.344,48.63,10.514,64.46c4.576,14.01,8.918,27.311,9.655,52.137h-42.567
			c-0.77-27.324-5.66-42.323-10.406-56.857c-5.021-15.376-9.763-29.9-9.763-59.74c0-29.84,4.743-44.364,9.763-59.74
			c5.169-15.83,10.514-32.201,10.514-64.461c0-32.258-5.345-48.628-10.514-64.457c-5.021-15.375-9.763-29.898-9.763-59.737
			s4.743-44.362,9.763-59.738c4.746-14.534,9.637-29.532,10.406-56.854h42.567C218.129,40.031,213.787,53.333,209.211,67.342z"/>
	</g>
</g>
<g>
	<g>
		<path d="M453.218,380.195c0-29.84,4.743-44.364,9.763-59.74c5.169-15.83,10.514-32.201,10.514-64.461
			c0-32.258-5.346-48.628-10.514-64.457c-5.021-15.375-9.763-29.898-9.763-59.737s4.743-44.362,9.763-59.738
			c5.167-15.83,10.513-32.199,10.513-64.458V0h-57.776h-61.85h-55.777v7.604c0,29.839-4.743,44.363-9.763,59.738
			c-5.169,15.83-10.514,32.199-10.514,64.458c0,32.258,5.345,48.628,10.514,64.457c5.021,15.375,9.763,29.898,9.763,59.737
			c0,29.841-4.743,44.364-9.763,59.74c-4.545,13.92-9.246,28.316-10.297,53.597l15.194,0.632c0.964-23.185,5.139-35.971,9.56-49.508
			c5.17-15.83,10.515-32.2,10.515-64.46c0-32.258-5.346-48.628-10.514-64.457c-5.021-15.375-9.763-29.898-9.763-59.737
			c0-29.839,4.743-44.363,9.763-59.738c4.746-14.536,9.641-29.526,10.41-56.854h40.562c-0.737,24.819-5.078,38.125-9.653,52.134
			c-5.169,15.829-10.514,32.199-10.514,64.458c0,32.258,5.345,48.628,10.514,64.457c5.021,15.375,9.763,29.898,9.763,59.737
			c0,29.841-4.743,44.365-9.763,59.741c-5.169,15.83-10.514,32.201-10.514,64.46c0,32.259,5.345,48.63,10.514,64.46
			c4.575,14.008,8.916,27.314,9.653,52.137h-40.562c-0.77-27.33-5.664-42.322-10.41-56.857c-4.469-13.686-8.69-26.614-9.591-50.296
			L278,390.217c0.98,25.805,5.733,40.362,10.33,54.438c5.021,15.376,9.763,29.9,9.763,59.741V512h55.777h61.85h57.776v-7.604
			c0-32.26-5.346-48.631-10.514-64.461C457.961,424.559,453.218,410.035,453.218,380.195z M368.973,496.792
			c-0.77-27.33-5.663-42.321-10.41-56.857c-5.021-15.376-9.763-29.9-9.763-59.74c0-29.84,4.743-44.364,9.763-59.74
			c5.17-15.83,10.514-32.201,10.514-64.461c0-32.258-5.345-48.628-10.514-64.457c-5.021-15.375-9.763-29.898-9.763-59.737
			s4.743-44.362,9.763-59.738c4.747-14.536,9.641-29.526,10.41-56.854h31.429c-0.737,24.823-5.079,38.125-9.654,52.134
			c-5.17,15.829-10.514,32.199-10.514,64.458c0,32.258,5.344,48.628,10.514,64.457c5.021,15.375,9.763,29.898,9.763,59.737
			c0,29.841-4.743,44.365-9.763,59.741c-5.17,15.83-10.514,32.201-10.514,64.46c0,32.259,5.344,48.63,10.514,64.46
			c4.576,14.01,8.918,27.311,9.654,52.137H368.973z M415.61,496.792c-0.77-27.324-5.66-42.323-10.406-56.857
			c-5.021-15.376-9.763-29.9-9.763-59.74c0-29.84,4.743-44.364,9.763-59.74c5.169-15.83,10.514-32.201,10.514-64.461
			c0-32.258-5.345-48.628-10.514-64.457c-5.021-15.375-9.763-29.898-9.763-59.737s4.743-44.362,9.763-59.738
			c4.746-14.534,9.637-29.532,10.406-56.854h42.567c-0.736,24.823-5.079,38.125-9.654,52.134
			c-5.169,15.83-10.514,32.199-10.514,64.458c0,32.258,5.345,48.628,10.514,64.457c5.021,15.375,9.763,29.898,9.763,59.737
			c0,29.841-4.743,44.365-9.763,59.741c-5.17,15.83-10.514,32.201-10.514,64.46c0,32.259,5.344,48.63,10.514,64.46
			c4.576,14.01,8.918,27.311,9.654,52.137H415.61z"/>
	</g>
</g>
</svg>