<?xml version="1.0" encoding="iso-8859-1"?>
<!-- Uploaded to: SVG Repo, www.svgrepo.com, Generator: SVG Repo Mixer Tools -->
<svg fill="currentColor" height="800px" width="800px" version="1.1" id="Layer_1" xmlns="http://www.w3.org/2000/svg" xmlns:xlink="http://www.w3.org/1999/xlink" 
	 viewBox="0 0 512 512" xml:space="preserve">
<g>
	<g>
		<path d="M333.462,93.653l-0.016-0.018l-2.855-0.393c-0.251-0.034-0.503-0.064-0.754-0.097c-0.862-0.116-1.726-0.229-2.591-0.335
			c-0.523-0.064-1.047-0.121-1.57-0.18c-1.578-0.18-3.159-0.344-4.747-0.49c-0.583-0.053-1.166-0.106-1.749-0.155
			c-0.854-0.071-1.708-0.138-2.566-0.198c-0.882-0.064-1.763-0.117-2.644-0.168c-0.893-0.053-1.789-0.101-2.685-0.142
			c-1.15-0.054-2.298-0.097-3.446-0.132c-0.506-0.015-1.012-0.027-1.518-0.04c-1.566-0.034-3.134-0.058-4.696-0.058h-25.347V66.086
			c0-14.077,11.453-25.531,25.531-25.531V25.347c-22.464,0-40.739,18.275-40.739,40.739v25.162v28.56h-10.139v-28.56V66.086
			c0-28.054,22.823-50.878,50.878-50.878V0c-36.44,0-66.086,29.645-66.086,66.086v25.162h-25.347c-1.561,0-3.128,0.023-4.695,0.06
			c-0.508,0.012-1.015,0.024-1.523,0.039c-1.142,0.034-2.283,0.078-3.426,0.131c-0.91,0.042-1.82,0.091-2.727,0.144
			c-0.872,0.052-1.743,0.104-2.615,0.166c-0.858,0.061-1.712,0.128-2.567,0.199c-0.588,0.049-1.174,0.103-1.761,0.156
			c-1.548,0.142-3.092,0.301-4.631,0.477c-0.568,0.064-1.137,0.126-1.703,0.195c-0.837,0.102-1.672,0.211-2.506,0.322
			c-0.27,0.036-0.54,0.067-0.81,0.105l-2.855,0.393l-0.016,0.019C77.59,109.044,0,196.443,0,301.624
			C0,417.626,94.374,512,210.376,512h91.248C417.626,512,512,417.626,512,301.624C512,196.443,434.411,109.045,333.462,93.653z
			 M186.437,107.926c0.061-0.007,0.122-0.013,0.182-0.02c1.809-0.221,3.622-0.413,5.437-0.583c0.296-0.027,0.593-0.053,0.89-0.079
			c1.594-0.142,3.19-0.263,4.784-0.366c0.398-0.025,0.797-0.053,1.195-0.076c1.516-0.089,3.03-0.155,4.544-0.209
			c0.423-0.015,0.843-0.036,1.266-0.049c1.884-0.055,3.766-0.087,5.641-0.087h25.345v14.87v13.688h40.554v-13.688v-14.871h25.347
			c1.877,0,3.759,0.032,5.645,0.087c0.417,0.012,0.831,0.033,1.248,0.048c1.524,0.055,3.048,0.122,4.574,0.211
			c0.387,0.022,0.775,0.05,1.162,0.074c1.608,0.104,3.216,0.226,4.823,0.369c0.286,0.025,0.573,0.05,0.86,0.076
			c1.817,0.17,3.632,0.363,5.441,0.583c0.063,0.007,0.126,0.014,0.189,0.021c13.133,17.132,14.948,41.362,14.991,52.953
			c-10.424-0.026-31.051-1.493-47.656-11.436l-8.788-5.263l-2.493,9.937c-4.689,18.688-18.262,34.36-25.618,41.774
			c-7.36-7.417-20.93-23.09-25.618-41.772l-2.494-9.937l-8.788,5.263c-16.529,9.899-37.211,11.383-47.655,11.424
			C171.489,149.267,173.308,125.051,186.437,107.926z M301.624,496.792h-91.248c-107.616,0-195.168-87.552-195.168-195.168
			c0-92.552,64.758-170.264,151.344-190.204c-12.682,26.09-10.193,55.994-10.056,57.508l0.571,6.322l6.322,0.568
			c1.321,0.122,29.558,2.48,55.105-8.956c9.978,26.15,31.615,44.449,32.631,45.297l4.875,4.073l4.875-4.073
			c1.016-0.849,22.654-19.148,32.632-45.299c25.547,11.436,53.785,9.077,55.104,8.956l6.323-0.568l0.571-6.322
			c0.137-1.515,2.624-31.418-10.057-57.506c86.585,19.941,151.344,97.652,151.344,190.204
			C496.792,409.24,409.24,496.792,301.624,496.792z"/>
	</g>
</g>
<g>
	<g>
		<path d="M466.376,301.624c0,28.879-7.614,57.309-22.019,82.216c-13.98,24.173-34.017,44.575-57.942,58.999l7.851,13.024
			c26.119-15.745,47.992-38.019,63.256-64.409c15.741-27.219,24.062-58.282,24.062-89.83H466.376z"/>
	</g>
</g>
<g>
	<g>
		<path d="M369.253,451.85c-21.323,9.64-44.078,14.527-67.63,14.527v15.208c25.728,0,50.589-5.342,73.894-15.877L369.253,451.85z"/>
	</g>
</g>
</svg>